<svg width="288" height="220" viewBox="0 0 288 220" fill="none" xmlns="http://www.w3.org/2000/svg" class="h-[1em] w-[1em]" data-v-c0bde5aa=""><title>IVP Logo</title><path d="M98.9998 60.4653H47.0898V66.0053C58.7898 67.1753 63.0198 71.7553 69.0898 83.7553L114.64 168.975H119.5L139.2 132.125L98.9998 60.4653Z" fill="#0079fe" data-darkreader-inline-fill="" style="--darkreader-inline-fill: currentColor;"></path><path d="M39.8009 60.4653H1.71094V168.985H39.8009V60.4653Z" fill="#0079fe" data-darkreader-inline-fill="" style="--darkreader-inline-fill: currentColor;"></path><path d="M20.75 41.7754C32.2099 41.7754 41.5 32.4853 41.5 21.0254C41.5 9.56548 32.2099 0.275391 20.75 0.275391C9.29009 0.275391 0 9.56548 0 21.0254C0 32.4853 9.29009 41.7754 20.75 41.7754Z" fill="#0079fe" data-darkreader-inline-fill="" style="--darkreader-inline-fill: currentColor;"></path><path d="M244.07 171.275C276.24 169.445 288 138.715 288 113.275C288 84.0555 275.33 56.4555 245.73 55.7255C229.51 55.4255 219.63 60.7255 213.18 69.4555V75.9355C215.508 73.1799 218.696 71.2883 222.23 70.5655C239.76 67.2455 250.09 81.8055 250.09 113.275C250.09 144.745 239.76 161.485 222.23 158.165C218.712 157.401 215.537 155.517 213.18 152.795C209.13 147.795 207.57 142.065 207.57 133.215V60.4155H149.82V65.9555C162.1 67.6755 169.51 75.4555 169.51 88.1655C169.51 94.0055 169.56 219.955 169.56 219.955H207.17V153.645C207.17 153.645 214.73 172.955 244.07 171.275Z" fill="#0079fe" data-darkreader-inline-fill="" style="--darkreader-inline-fill: currentColor;"></path></svg>