<svg width="403" height="141" viewBox="0 0 403 141" fill="none" xmlns="http://www.w3.org/2000/svg">
<path d="M2.88086 102.164C3.69448 102.164 4.46291 101.804 5.18613 101.083C5.99976 100.272 6.67778 99.2803 7.2202 98.1087C7.85302 96.8469 8.35023 95.4499 8.71184 93.9177C9.07345 92.2954 9.25426 90.7182 9.25426 89.186V53.4955C9.25426 51.783 9.07345 50.1607 8.71184 48.6286C8.35023 47.0063 7.85302 45.6093 7.2202 44.4376C6.67778 43.1758 5.99976 42.1844 5.18613 41.4634C4.46291 40.6523 3.69448 40.2467 2.88086 40.2467V38.8948C5.41214 38.7145 7.94342 38.4892 10.4747 38.2188C13.006 37.8583 15.4921 37.4527 17.9329 37.0021C20.3738 36.5515 22.6791 36.0558 24.8488 35.515C27.0184 34.8841 28.9621 34.1631 30.6797 33.3519H32.307V43.7617C35.0191 39.9763 38.4092 37.0922 42.4773 35.1094C46.6358 33.0365 51.1108 32 55.9021 32C59.247 32 62.0043 32.6309 64.174 33.8927C66.3437 35.1545 67.9709 36.7317 69.0557 38.6244C70.1406 40.5171 70.683 42.59 70.683 44.8432C70.683 47.0964 70.231 49.1693 69.327 51.062C68.4229 52.9547 67.0669 54.5319 65.2588 55.7937C63.5412 57.0555 61.4167 57.6864 58.8854 57.6864C55.9021 57.6864 53.6873 56.8752 52.2408 55.253C50.7944 53.6307 49.6191 51.8732 48.7151 49.9805C47.8111 47.9977 46.907 46.1951 46.003 44.5728C45.099 42.9505 43.6073 42.1394 41.5281 42.1394C40.4432 42.1394 39.4036 42.4548 38.4092 43.0857C37.5052 43.7166 36.6463 44.5278 35.8327 45.5192C35.0191 46.4204 34.2958 47.3668 33.663 48.3582C33.1206 49.2595 32.6686 50.0706 32.307 50.7916V88.6453C32.307 90.2676 32.4878 91.8899 32.8494 93.5122C33.211 95.1345 33.663 96.6216 34.2054 97.9735C34.8383 99.2353 35.5163 100.272 36.2395 101.083C37.0531 101.804 37.8668 102.164 38.6804 102.164V103.516H2.88086V102.164Z" fill="#F3F3F3"/>
<path d="M94.1425 64.1756C94.5945 72.8279 96.719 79.4522 100.516 84.0488C104.403 88.6453 109.421 90.9435 115.568 90.9435C116.834 90.9435 118.506 90.8534 120.585 90.6731C122.665 90.4028 124.789 89.7719 126.959 88.7805C129.128 87.7891 131.162 86.347 133.061 84.4543C134.959 82.4715 136.27 79.7226 136.993 76.2076H138.35C137.988 80.8042 136.903 84.905 135.095 88.5101C133.377 92.0251 131.117 94.9993 128.315 97.4327C125.512 99.8662 122.258 101.714 118.551 102.976C114.845 104.237 110.822 104.868 106.483 104.868C101.239 104.868 96.4026 103.967 91.9729 102.164C87.6335 100.362 83.8818 97.8383 80.7177 94.5937C77.5536 91.3491 75.0675 87.4736 73.2595 82.9672C71.5418 78.4608 70.683 73.5038 70.683 68.0961C70.683 62.6885 71.4966 57.7765 73.1239 53.3603C74.8415 48.944 77.192 45.1586 80.1753 42.0042C83.249 38.8497 86.8651 36.4163 91.0236 34.7038C95.2726 32.9013 99.9283 32 104.991 32C109.601 32 113.896 32.7661 117.873 34.2983C121.941 35.7403 125.467 37.8132 128.45 40.5171C131.434 43.1308 133.784 46.2402 135.502 49.8453C137.219 53.3603 138.078 57.1907 138.078 61.3366V64.1756H94.1425ZM115.704 60.931C115.432 52.9998 114.393 46.7809 112.585 42.2746C110.777 37.678 108.426 35.3798 105.533 35.3798C103.816 35.3798 102.279 36.0558 100.923 37.4077C99.5667 38.7596 98.3915 40.6072 97.397 42.9505C96.4026 45.2938 95.6342 48.0427 95.0918 51.1972C94.5493 54.2615 94.1877 57.5061 94.0069 60.931H115.704Z" fill="#F3F3F3"/>
<path d="M150.419 135.827C146.984 135.827 144.091 135.241 141.741 134.07C139.39 132.898 137.537 131.411 136.181 129.608C134.915 127.896 134.102 126.003 133.74 123.93C133.469 121.947 133.65 120.055 134.282 118.252C134.915 116.54 136 115.098 137.537 113.926C139.074 112.754 141.063 112.169 143.504 112.169C145.764 112.169 147.526 112.529 148.792 113.25C150.058 113.971 151.052 114.827 151.775 115.819C152.589 116.9 153.222 118.027 153.674 119.199C154.126 120.46 154.623 121.587 155.166 122.578C155.708 123.66 156.341 124.561 157.064 125.282C157.878 126.003 159.053 126.364 160.59 126.364C162.127 126.364 163.618 125.778 165.065 124.606C166.601 123.435 168.003 121.407 169.268 118.523L143.504 48.0878C142.057 44.1222 140.339 40.9226 138.351 38.4892C136.362 35.9656 134.508 34.7038 132.791 34.7038V33.3519H170.76V34.7038C169.133 34.7038 168.048 35.9656 167.506 38.4892C166.963 40.9226 167.415 44.1222 168.862 48.0878L182.151 84.5895L195.982 47.6822C196.706 45.7895 196.977 44.0771 196.796 42.5449C196.706 40.9226 196.344 39.5707 195.711 38.4892C195.169 37.3175 194.446 36.4163 193.542 35.7854C192.728 35.0643 191.914 34.7038 191.101 34.7038V33.3519H212.526V34.7038C211.713 34.7038 210.673 35.0643 209.407 35.7854C208.142 36.4163 206.876 37.3175 205.61 38.4892C204.345 39.5707 203.124 40.9226 201.949 42.5449C200.864 44.0771 199.96 45.7895 199.237 47.6822L173.879 115.819C171.348 122.668 168.138 127.716 164.251 130.96C160.454 134.205 155.844 135.827 150.419 135.827Z" fill="#F3F3F3"/>
<path d="M203.374 68.5017C203.374 63.2743 204.323 58.4525 206.222 54.0362C208.21 49.5298 210.877 45.6544 214.222 42.4098C217.658 39.1652 221.68 36.6416 226.291 34.839C230.992 32.9463 236.009 32 241.343 32C246.677 32 251.604 32.9463 256.124 34.839C260.734 36.6416 264.712 39.1652 268.057 42.4098C271.402 45.6544 274.024 49.5298 275.922 54.0362C277.911 58.4525 278.905 63.2743 278.905 68.5017C278.905 73.639 277.911 78.4608 275.922 82.9672C274.024 87.3835 271.402 91.2139 268.057 94.4585C264.712 97.7031 260.734 100.272 256.124 102.164C251.604 103.967 246.677 104.868 241.343 104.868C236.009 104.868 230.992 103.967 226.291 102.164C221.68 100.272 217.658 97.7031 214.222 94.4585C210.877 91.2139 208.21 87.3835 206.222 82.9672C204.323 78.4608 203.374 73.639 203.374 68.5017ZM228.054 68.3665C228.054 74.8557 228.37 80.2634 229.003 84.5895C229.726 88.8255 230.676 92.2053 231.851 94.7289C233.116 97.1623 234.518 98.9198 236.055 100.001C237.682 100.993 239.399 101.488 241.207 101.488C243.016 101.488 244.688 100.993 246.225 100.001C247.852 98.9198 249.253 97.1623 250.429 94.7289C251.604 92.2053 252.508 88.8255 253.141 84.5895C253.864 80.2634 254.225 74.8557 254.225 68.3665C254.225 61.8773 253.864 56.5147 253.141 52.2787C252.508 48.0427 251.604 44.708 250.429 42.2746C249.253 39.751 247.852 37.9935 246.225 37.0021C244.688 35.9206 243.016 35.3798 241.207 35.3798C239.399 35.3798 237.682 35.9206 236.055 37.0021C234.518 37.9935 233.116 39.751 231.851 42.2746C230.676 44.708 229.726 48.0427 229.003 52.2787C228.37 56.5147 228.054 61.8773 228.054 68.3665Z" fill="#F3F3F3"/>
<path d="M333.37 53.4955C333.37 51.783 333.189 50.1607 332.827 48.6286C332.466 47.0063 331.968 45.6093 331.336 44.4376C330.793 43.1758 330.115 42.1844 329.302 41.4634C328.578 40.6523 327.81 40.2467 326.996 40.2467V38.8948C329.528 38.7145 332.059 38.4892 334.59 38.2188C337.121 37.8583 339.607 37.4527 342.048 37.0021C344.489 36.5515 346.794 36.0558 348.964 35.515C351.134 34.8841 353.077 34.1631 354.795 33.3519H356.422V85.5359C356.422 91.8448 357.055 96.216 358.321 98.6494C359.586 100.993 361.078 102.164 362.796 102.164V103.516H333.37V93.6474C332.375 94.9993 331.064 96.3512 329.437 97.7031C327.9 99.055 326.047 100.272 323.877 101.353C321.708 102.435 319.312 103.291 316.69 103.922C314.069 104.553 311.176 104.868 308.012 104.868C300.96 104.868 295.4 102.84 291.332 98.7846C287.264 94.7289 285.23 88.7805 285.23 80.9393V53.4955C285.23 51.783 285.049 50.1607 284.688 48.6286C284.326 47.0063 283.829 45.6093 283.196 44.4376C282.654 43.1758 281.976 42.1844 281.162 41.4634C280.439 40.6523 279.67 40.2467 278.857 40.2467V38.8948C281.388 38.7145 283.919 38.4892 286.451 38.2188C288.982 37.8583 291.468 37.4527 293.909 37.0021C296.35 36.5515 298.655 36.0558 300.825 35.515C302.994 34.8841 304.938 34.1631 306.656 33.3519H308.283V82.0209C308.283 85.8062 309.277 89.141 311.266 92.0251C313.255 94.819 316.193 96.216 320.08 96.216C321.708 96.216 323.29 95.9456 324.827 95.4048C326.454 94.8641 327.9 94.098 329.166 93.1066C330.432 92.1152 331.426 90.9886 332.149 89.7268C332.963 88.3749 333.37 86.8878 333.37 85.2655V53.4955Z" fill="#F3F3F3"/>
<path d="M380.177 104.733C376.833 104.733 373.985 103.652 371.634 101.488C369.374 99.3254 368.244 96.6666 368.244 93.5122C368.244 90.3577 369.374 87.6989 371.634 85.5359C373.985 83.3728 376.833 82.2913 380.177 82.2913C383.522 82.2913 386.325 83.3728 388.585 85.5359C390.935 87.6989 392.111 90.3577 392.111 93.5122C392.111 96.6666 390.935 99.3254 388.585 101.488C386.325 103.652 383.522 104.733 380.177 104.733Z" fill="#F3F3F3"/>
<path d="M335.823 135.957H336.024C336.425 136.174 336.875 136.366 337.376 136.533C337.894 136.683 338.453 136.8 339.055 136.884C339.672 136.967 340.332 137.009 341.033 137.009C341.835 137.009 342.544 136.934 343.162 136.784C343.797 136.617 344.289 136.349 344.64 135.982C345.007 135.598 345.191 135.072 345.191 134.404C345.191 133.603 344.957 133.026 344.49 132.676C344.039 132.325 343.354 132.066 342.436 131.899L340.232 131.499C339.397 131.348 338.629 131.081 337.927 130.697C337.226 130.296 336.667 129.745 336.249 129.044C335.832 128.343 335.623 127.458 335.623 126.389C335.623 125.053 335.932 123.959 336.55 123.108C337.184 122.24 338.061 121.605 339.18 121.204C340.315 120.787 341.634 120.578 343.137 120.578C343.838 120.578 344.531 120.645 345.216 120.779C345.917 120.912 346.493 121.079 346.944 121.279V123.584H346.744C346.343 123.383 345.834 123.2 345.216 123.033C344.615 122.866 343.889 122.782 343.037 122.782C342.102 122.782 341.25 122.899 340.482 123.133C339.731 123.367 339.13 123.742 338.679 124.26C338.245 124.778 338.028 125.454 338.028 126.289C338.028 127.341 338.303 128.076 338.854 128.493C339.405 128.91 340.165 129.211 341.133 129.395L343.338 129.795C344.189 129.946 344.932 130.205 345.567 130.572C346.201 130.939 346.694 131.432 347.044 132.05C347.412 132.651 347.596 133.402 347.596 134.304C347.596 135.122 347.437 135.84 347.12 136.458C346.802 137.076 346.352 137.593 345.767 138.011C345.199 138.412 344.515 138.712 343.713 138.913C342.912 139.113 342.018 139.213 341.033 139.213C340.332 139.213 339.664 139.171 339.029 139.088C338.412 139.004 337.827 138.896 337.276 138.762C336.742 138.629 336.258 138.478 335.823 138.311V135.957Z" fill="#F3F3F3"/>
<path d="M319.894 120.883H333.92V122.987H328.109V138.917H325.704V122.987H319.894V120.883Z" fill="#F3F3F3"/>
<path d="M303.555 138.917V120.883H305.558L315.928 131.828V135.21L305.308 124.014L305.959 123.738V138.917H303.555ZM314.776 138.917V120.883H317.18V138.917H314.776Z" fill="#F3F3F3"/>
<path d="M288.121 138.917V120.883H290.526V138.917H288.121ZM289.524 138.917V136.813H299.843V138.917H289.524ZM289.524 130.501V128.397H298.14V130.501H289.524ZM289.524 122.987V120.883H299.543V122.987H289.524Z" fill="#F3F3F3"/>
<path d="M267.574 138.917V120.883H269.578L275.94 130.801H274.938L281.3 120.883H283.304V138.917H280.899V124.815L281.425 124.965L276.391 132.705H274.487L269.453 124.965L269.979 124.815V138.917H267.574Z" fill="#F3F3F3"/>
<path d="M250.844 120.883H264.87V122.987H259.059V138.917H256.655V122.987H250.844V120.883Z" fill="#F3F3F3"/>
<path d="M235.161 138.914L237.165 126.891C237.332 125.889 237.574 125.004 237.891 124.236C238.225 123.468 238.668 122.817 239.219 122.283C239.77 121.748 240.479 121.348 241.348 121.08C242.216 120.813 243.276 120.68 244.529 120.68C245.13 120.68 245.731 120.713 246.332 120.78C246.95 120.83 247.584 120.93 248.236 121.08L248.286 121.381C248.236 121.715 248.194 122.132 248.161 122.633C248.144 123.134 248.135 123.635 248.135 124.136C248.135 124.637 248.135 125.055 248.135 125.389V138.914H245.731V124.086C245.731 123.752 245.731 123.443 245.731 123.159C245.748 122.859 245.781 122.575 245.831 122.308L246.232 123.034C246.015 122.934 245.748 122.867 245.43 122.834C245.13 122.8 244.796 122.784 244.429 122.784C243.326 122.784 242.45 122.934 241.799 123.234C241.164 123.535 240.68 123.986 240.346 124.587C240.029 125.188 239.786 125.956 239.619 126.891L237.616 138.914H235.161ZM237.666 133.404V131.3H246.733V133.404H237.666Z" fill="#F3F3F3"/>
<path d="M220.93 138.917V120.883H223.334V138.917H220.93ZM222.332 138.917V136.813H232.652V138.917H222.332ZM222.332 130.501V128.397H230.948V130.501H222.332ZM222.332 122.987V120.883H232.351V122.987H222.332Z" fill="#F3F3F3"/>
<path d="M205.797 133.506V131.302H210.105C211.04 131.302 211.817 131.077 212.435 130.626C213.069 130.175 213.537 129.582 213.837 128.848C214.154 128.113 214.313 127.328 214.313 126.493C214.313 125.291 213.988 124.406 213.336 123.838C212.702 123.271 211.859 122.987 210.807 122.987H205.797V120.883H210.907C212.109 120.883 213.153 121.1 214.038 121.534C214.923 121.968 215.607 122.603 216.091 123.438C216.576 124.273 216.818 125.291 216.818 126.493C216.818 127.612 216.626 128.614 216.242 129.499C215.874 130.367 215.365 131.102 214.714 131.703C214.079 132.288 213.353 132.738 212.535 133.056C211.733 133.356 210.89 133.506 210.005 133.506H205.797ZM204.395 138.917V120.883H206.799V138.917H204.395ZM215.115 138.917L210.406 132.805L212.91 132.505L217.92 138.816V138.917H215.115Z" fill="#F3F3F3"/>
<path d="M187.664 120.883H201.69V122.987H195.879V138.917H193.475V122.987H187.664V120.883Z" fill="#F3F3F3"/>
<path d="M110.248 138.917V120.883H112.653V138.917H110.248ZM111.651 138.917V136.813H121.97V138.917H111.651ZM111.651 130.501V128.397H120.267V130.501H111.651ZM111.651 122.987V120.883H121.669V122.987H111.651Z" fill="#F3F3F3"/>
<path d="M91.8057 138.917V120.883H93.8094L104.179 131.828V135.21L93.559 124.014L94.2102 123.738V138.917H91.8057ZM103.027 138.917V120.883H105.431V138.917H103.027Z" fill="#F3F3F3"/>
<path d="M84.5898 120.883H86.9943V138.917H84.5898V120.883Z" fill="#F3F3F3"/>
<path d="M64.0439 138.917V120.883H66.0477L72.4096 130.801H71.4078L77.7697 120.883H79.7734V138.917H77.3689V124.815L77.8949 124.965L72.8605 132.705H70.9569L65.9225 124.965L66.4484 124.815V138.917H64.0439Z" fill="#F3F3F3"/>
<path d="M46.2578 138.914L48.2616 126.891C48.4285 125.889 48.6707 125.004 48.9879 124.236C49.3219 123.468 49.7644 122.817 50.3154 122.283C50.8665 121.748 51.5761 121.348 52.4444 121.08C53.3127 120.813 54.373 120.68 55.6254 120.68C56.2265 120.68 56.8276 120.713 57.4288 120.78C58.0466 120.83 58.6811 120.93 59.3323 121.08L59.3824 121.381C59.3323 121.715 59.2906 122.132 59.2572 122.633C59.2405 123.134 59.2321 123.635 59.2321 124.136C59.2321 124.637 59.2321 125.055 59.2321 125.389V138.914H56.8276V124.086C56.8276 123.752 56.8276 123.443 56.8276 123.159C56.8443 122.859 56.8777 122.575 56.9278 122.308L57.3286 123.034C57.1115 122.934 56.8443 122.867 56.5271 122.834C56.2265 122.8 55.8925 122.784 55.5252 122.784C54.4231 122.784 53.5465 122.934 52.8953 123.234C52.2607 123.535 51.7765 123.986 51.4425 124.587C51.1253 125.188 50.8832 125.956 50.7162 126.891L48.7124 138.914H46.2578ZM48.7625 133.404V131.3H57.8295V133.404H48.7625Z" fill="#F3F3F3"/>
<path d="M32.0254 120.883H46.0517V122.987H40.2408V138.917H37.8363V122.987H32.0254V120.883Z" fill="#F3F3F3"/>
<path d="M18.6943 138.917V120.883H21.0988V138.917H18.6943ZM20.097 138.917V136.813H30.4163V138.917H20.097ZM20.097 130.501V128.397H28.7131V130.501H20.097ZM20.097 122.987V120.883H30.1158V122.987H20.097Z" fill="#F3F3F3"/>
<path d="M6.71237 131.903H3.75683V129.8H6.61219C7.46378 129.8 8.10666 129.599 8.5408 129.198C8.99165 128.798 9.35065 128.297 9.61782 127.696L12.8238 120.883H15.3285V121.083L11.822 128.397C11.5214 129.048 11.1457 129.641 10.6948 130.175C10.244 130.71 9.69296 131.135 9.04174 131.453C8.40722 131.753 7.63076 131.903 6.71237 131.903ZM2.4043 138.917V120.883H4.80881V138.917H2.4043ZM10.0186 130.3L15.3786 138.716V138.917H12.6736L8.115 131.503L10.0186 130.3Z" fill="#F3F3F3"/>
</svg>
